<svg xmlns="http://www.w3.org/2000/svg" fill="none" viewBox="0 0 640 640">
  <path fill="#2D3051" d="M533.24 0H152.3A106.76 106.76 0 0045.52 106.8V209.5a65.86 65.86 0 0066.28 65.75L325.09 274c17.7 0 40.92 23.23 40.92 40.9l-1.26 213.3a65.9 65.9 0 0065.86 66.27h102.63A106.76 106.76 0 00640 487.68V106.8A106.76 106.76 0 00533.24 0z"/>
  <path fill="#5F62AC" d="M56.69 332.05H275.6a32.34 32.34 0 0132.34 32.34v218.92A56.69 56.69 0 01251.26 640H56.7A56.69 56.69 0 010 583.31V388.65a56.69 56.69 0 0156.69-56.6z"/>
</svg>