<?xml version="1.0" standalone="no"?>
<!DOCTYPE svg PUBLIC "-//W3C//DTD SVG 20010904//EN"
 "http://www.w3.org/TR/2001/REC-SVG-20010904/DTD/svg10.dtd">
<svg version="1.0" xmlns="http://www.w3.org/2000/svg"
 width="700.000000pt" height="700.000000pt" viewBox="0 0 700.000000 700.000000"
 preserveAspectRatio="xMidYMid meet">
<metadata>
Created by potrace 1.14, written by Peter Selinger 2001-2017
</metadata>
<g transform="translate(0.000000,700.000000) scale(0.100000,-0.100000)"
fill="#000000" stroke="none">
<path d="M1475 6984 c-38 -8 -79 -16 -90 -18 -45 -9 -184 -60 -240 -89 -224
-116 -403 -293 -516 -512 -43 -84 -90 -210 -103 -280 -4 -16 -8 -40 -11 -53
-2 -13 -7 -53 -11 -90 -8 -87 -8 -1273 1 -1332 19 -135 80 -267 170 -373 95
-111 267 -209 410 -235 35 -6 1051 -7 2135 -1 201 1 379 -2 395 -6 149 -35
323 -202 375 -360 11 -31 13 -131 11 -450 -6 -984 -5 -2073 1 -2106 4 -20 19
-70 34 -110 87 -242 309 -422 573 -464 50 -8 1245 -9 1336 -1 33 3 71 8 85 11
14 2 39 7 55 11 65 13 214 68 290 107 165 86 327 233 429 389 95 145 141 260
177 443 17 85 18 210 16 2315 l-2 2225 -23 85 c-34 127 -49 166 -97 265 -81
163 -230 337 -373 434 -127 86 -312 167 -425 186 -18 3 -45 8 -62 12 -16 4
-1029 8 -2250 9 -1873 2 -2231 0 -2290 -12z"/>
<path d="M530 3363 c-93 -10 -220 -69 -309 -143 -104 -87 -186 -226 -211 -362
-7 -33 -9 -472 -7 -1208 3 -1282 -3 -1174 70 -1320 47 -95 169 -214 268 -262
147 -71 100 -68 1358 -68 l1130 0 84 25 c172 50 311 163 386 316 73 147 69 74
70 1464 1 1335 3 1284 -47 1381 -30 59 -90 113 -162 148 l-65 31 -1265 1
c-696 0 -1281 -1 -1300 -3z"/>
</g>
</svg>
