<?xml version="1.0" encoding="iso-8859-1"?>
<!-- Generator: Adobe Illustrator 19.0.0, SVG Export Plug-In . SVG Version: 6.00 Build 0)  -->
<svg version="1.1" id="Layer_1" xmlns="http://www.w3.org/2000/svg" xmlns:xlink="http://www.w3.org/1999/xlink" x="0px" y="0px"
	 viewBox="0 0 330.002 330.002" style="enable-background:new 0 0 330.002 330.002;" xml:space="preserve">
<g id="XMLID_2_">
	<path id="XMLID_4_" d="M15.001,130.001h15v100h30v-100h50v100h30v-100h50v100h30v-100h50v100h30v-100h15
		c6.609,0,12.441-4.327,14.356-10.653c1.915-6.326-0.536-13.161-6.036-16.828l-150-100c-5.038-3.358-11.603-3.358-16.641,0l-150,100
		c-5.5,3.667-7.951,10.502-6.036,16.828C2.56,125.674,8.392,130.001,15.001,130.001z"/>
	<path id="XMLID_5_" d="M315.001,260.001h-15h-30h-50h-30h-50h-30h-50h-30h-15c-8.284,0-15,6.716-15,15v40c0,8.284,6.716,15,15,15
		h300c8.284,0,15-6.716,15-15v-40C330.001,266.717,323.285,260.001,315.001,260.001z"/>
</g>
<g>
</g>
<g>
</g>
<g>
</g>
<g>
</g>
<g>
</g>
<g>
</g>
<g>
</g>
<g>
</g>
<g>
</g>
<g>
</g>
<g>
</g>
<g>
</g>
<g>
</g>
<g>
</g>
<g>
</g>
</svg>
